Coordinates
version=1
nRows=8
nColumns=40
inDegrees=yes

Units are S.I. units (second, meters, Newtons, ...)
Angles are in degrees.

endheader
time	pelvis_tilt	pelvis_list	pelvis_rotation	pelvis_tx	pelvis_ty	pelvis_tz	hip_flexion_r	hip_adduction_r	hip_rotation_r	knee_angle_r	knee_angle_r_beta	ankle_angle_r	subtalar_angle_r	mtp_angle_r	hip_flexion_l	hip_adduction_l	hip_rotation_l	knee_angle_l	knee_angle_l_beta	ankle_angle_l	subtalar_angle_l	mtp_angle_l	lumbar_extension	lumbar_bending	lumbar_rotation	arm_flex_r	arm_add_r	arm_rot_r	elbow_flex_r	pro_sup_r	wrist_flex_r	wrist_dev_r	arm_flex_l	arm_add_l	arm_rot_l	elbow_flex_l	pro_sup_l	wrist_flex_l	wrist_dev_l
     14.51250000	     -4.37361554	     -5.21890376	      3.16663053	      1.02553852	      0.92351674	      0.45252949	     -1.58341923	     -0.64632805	    -18.21572315	     18.81403327	     18.81403327	     16.03193053	      5.98000299	     -6.82721512	     26.28523513	     -8.05676397	     -1.91668815	     27.16477138	     27.16477138	      8.44683373	    -12.89041209	      7.23067731	     -7.71429027	      6.12184300	      4.78017056	     25.06890271	    -18.47792204	     -7.97828510	     81.10009568	     45.13876278	      0.00000000	      0.00000000	     -6.02098044	     -9.75328905	     11.47018597	     35.87482136	     43.27828097	      0.00000000	      0.00000000
     14.52628571	     -4.45454903	     -5.18136582	      2.98735820	      1.02595723	      0.92422155	      0.44873092	     -0.93936492	     -1.27317654	    -17.77533297	     20.49473750	     20.49473750	     14.94305985	      4.97039040	     -9.30385155	     25.80653086	     -7.82541659	     -2.10120452	     27.04976187	     27.04976187	      8.92050429	    -12.92698238	      7.42267682	     -7.60269388	      6.06750174	      4.60679410	     24.58595167	    -18.23498310	     -8.30813212	     78.42963705	     45.24350764	      0.00000000	      0.00000000	     -4.60806359	     -9.62729892	      9.81837487	     34.65749116	     43.63669554	      0.00000000	      0.00000000
     14.54007143	     -4.44300619	     -5.08153001	      2.75960690	      1.02633908	      0.92505894	      0.44502837	     -0.05832196	     -2.09736002	    -17.39771850	     22.87411067	     22.87411067	     14.40831176	      4.23262783	    -10.11117231	     25.14575898	     -7.60786957	     -2.57690904	     26.82450168	     26.82450168	      9.29961833	    -12.71678035	      7.24530923	     -7.70399426	      5.94650120	      4.60291604	     23.44703625	    -18.40778436	     -8.17139607	     77.39899865	     45.26918144	      0.00000000	      0.00000000	     -3.53829823	    -10.02578655	      9.38263690	     35.00850494	     43.72660346	      0.00000000	      0.00000000
     14.55385714	     -4.53174311	     -5.01351057	      2.49979927	      1.02637482	      0.92573668	      0.44145416	      1.25525516	     -2.92640028	    -16.75679850	     25.73683523	     25.73683523	     13.55078693	      3.08223922	    -11.27179566	     24.59833120	     -7.41679721	     -3.00420269	     26.55174891	     26.55174891	      9.60459906	    -12.46192262	      7.01266660	     -7.72991660	      5.83755593	      4.65116139	     22.32400518	    -18.52894242	     -8.11870366	     75.93810167	     45.31173738	      0.00000000	      0.00000000	     -2.34966217	    -10.38427279	      8.86880267	     35.28206023	     43.83028031	      0.00000000	      0.00000000
     14.56764286	     -4.57459670	     -5.05463826	      2.23596880	      1.02633398	      0.92649916	      0.43821792	      2.59874920	     -3.44944943	    -15.64705078	     28.45112503	     28.45112503	     11.31488435	      0.42969057	    -15.24089717	     23.98728079	     -7.38253933	     -3.49559793	     26.21442774	     26.21442774	      9.70623100	    -12.24383503	      6.28657551	     -7.70298053	      5.80757076	      4.33156801	     21.92333261	    -18.08596470	     -8.27709154	     72.81049200	     45.41886625	      0.00000000	      0.00000000	     -1.07705336	    -10.46707511	      7.07520166	     34.94520155	     44.17597934	      0.00000000	      0.00000000
     14.58142857	     -4.56994917	     -4.92972003	      1.96217259	      1.02605161	      0.92720998	      0.43491455	      4.29897528	     -4.42241237	    -14.99610546	     32.07137260	     32.07137260	     10.13255189	     -0.69227956	    -16.03402855	     23.33435275	     -7.16786121	     -4.03012275	     25.90645006	     25.90645006	     10.04620273	    -11.91183114	      6.04385764	     -7.87337913	      5.62922259	      4.21470833	     20.75568983	    -18.03999225	     -8.08832327	     71.77502666	     45.44125404	      0.00000000	      0.00000000	      0.12730216	    -10.96528251	      6.67987773	     35.39550293	     44.25660743	      0.00000000	      0.00000000
     14.59521429	     -4.63432237	     -5.01539799	      1.66952841	      1.02559177	      0.92777742	      0.43205087	      6.23745803	     -4.87141824	    -13.67018125	     35.66162800	     35.66162800	      8.13804671	     -3.34849339	    -17.57121370	     22.81930762	     -7.22285984	     -4.56484673	     25.65007775	     25.65007775	     10.22247678	    -11.48596438	      5.33414225	     -7.90945627	      5.65377296	      4.13837476	     19.91326841	    -17.82795856	     -8.10696680	     69.16516235	     45.52216109	      0.00000000	      0.00000000	      1.41357972	    -11.32718522	      5.71280040	     35.79212091	     44.45036332	      0.00000000	      0.00000000
     14.60900000	     -4.53714421	     -4.88020454	      1.44253884	      1.02497754	      0.92844988	      0.42910577	      8.15936779	     -5.75948645	    -12.89028705	     39.57938728	     39.57938728	      6.55699014	     -4.49257596	    -17.86193941	     22.10366522	     -7.00440636	     -5.05977252	     25.34040387	     25.34040387	     10.54104461	    -11.12471072	      5.09882240	     -8.22967975	      5.44122971	      3.83082389	     18.80453465	    -17.55159427	     -7.93621196	     68.14064488	     45.54439486	      0.00000000	      0.00000000	      2.77635950	    -11.91995511	      5.42650557	     36.27034252	     44.51338694	      0.00000000	      0.00000000
